<svg xmlns="http://www.w3.org/2000/svg" xmlns:xlink="http://www.w3.org/1999/xlink" contentStyleType="text/css" data-diagram-type="CLASS" height="489px" preserveAspectRatio="none" style="width:1449px;height:489px;background:#FFFFFF;" version="1.1" viewBox="0 0 1449 489" width="1449px" zoomAndPan="magnify"><defs/><g><!--class Entity--><g id="elem_Entity"><rect codeLine="1" fill="#F1F1F1" height="145.7813" id="Entity" rx="2.5" ry="2.5" style="stroke:#181818;stroke-width:0.5;" width="190.001" x="604.5" y="7"/><ellipse cx="674.8145" cy="23" fill="#ADD1B2" rx="11" ry="11" style="stroke:#181818;stroke-width:1;"/><path d="M677.7832,28.6406 Q677.2051,28.9375 676.5645,29.0781 Q675.9238,29.2344 675.2207,29.2344 Q672.7207,29.2344 671.3926,27.5938 Q670.0801,25.9375 670.0801,22.8125 Q670.0801,19.6875 671.3926,18.0313 Q672.7207,16.375 675.2207,16.375 Q675.9238,16.375 676.5645,16.5313 Q677.2207,16.6875 677.7832,16.9844 L677.7832,19.7031 Q677.1582,19.125 676.5645,18.8594 Q675.9707,18.5781 675.3457,18.5781 Q674.002,18.5781 673.3145,19.6563 Q672.627,20.7188 672.627,22.8125 Q672.627,24.9063 673.3145,25.9844 Q674.002,27.0469 675.3457,27.0469 Q675.9707,27.0469 676.5645,26.7813 Q677.1582,26.5 677.7832,25.9219 L677.7832,28.6406 Z " fill="#000000"/><text fill="#000000" font-family="sans-serif" font-size="14" lengthAdjust="spacing" textLength="40.8721" x="695.3145" y="27.8467">Entity</text><line style="stroke:#181818;stroke-width:0.5;" x1="605.5" x2="793.501" y1="39" y2="39"/><rect fill="transparent" height="6" style="stroke:#C82930;stroke-width:1;" width="6" x="612.5" y="49.6484"/><text fill="#000000" font-family="sans-serif" font-size="14" lengthAdjust="spacing" textLength="137.9834" x="624.5" y="55.9951">idCount : static uint</text><rect fill="transparent" height="6" style="stroke:#C82930;stroke-width:1;" width="6" x="612.5" y="65.9453"/><text fill="#000000" font-family="sans-serif" font-size="14" lengthAdjust="spacing" textLength="53.5186" x="624.5" y="72.292">id : uint</text><rect fill="transparent" height="6" style="stroke:#C82930;stroke-width:1;" width="6" x="612.5" y="82.2422"/><text fill="#000000" font-family="sans-serif" font-size="14" lengthAdjust="spacing" textLength="66.8213" x="624.5" y="88.5889">age : uint</text><polygon fill="transparent" points="615.5,96.5391,619.5,100.5391,615.5,104.5391,611.5,100.5391" style="stroke:#B38D22;stroke-width:1;"/><text fill="#000000" font-family="sans-serif" font-size="14" lengthAdjust="spacing" textLength="109.3545" x="624.5" y="104.8857">location : string</text><line style="stroke:#181818;stroke-width:0.5;" x1="605.5" x2="793.501" y1="112.1875" y2="112.1875"/><polygon fill="#FFFF44" points="615.5,120.8359,619.5,124.8359,615.5,128.8359,611.5,124.8359" style="stroke:#B38D22;stroke-width:1;"/><text fill="#000000" font-family="sans-serif" font-size="14" lengthAdjust="spacing" textLength="142.3242" x="624.5" y="129.1826">Entity(age, location)</text><polygon fill="#FFFF44" points="615.5,137.1328,619.5,141.1328,615.5,145.1328,611.5,141.1328" style="stroke:#B38D22;stroke-width:1;"/><text fill="#000000" font-family="sans-serif" font-size="14" lengthAdjust="spacing" textLength="164.001" x="624.5" y="145.4795">Entity(id, age, location)</text></g><path d="M94,62.5 L94,87.6328 A0,0 0 0 0 94,87.6328 L568.5273,87.6328 A0,0 0 0 0 568.5273,87.6328 L568.5273,80.5 L608.5,51.1484 L568.5273,72.5 L568.5273,72.5 L558.5273,62.5 L94,62.5 A0,0 0 0 0 94,62.5 " fill="#FEFFDD" style="stroke:#181818;stroke-width:0.5;"/><path d="M558.5273,62.5 L558.5273,72.5 L568.5273,72.5 L558.5273,62.5 " fill="#FEFFDD" style="stroke:#181818;stroke-width:0.5;"/><text fill="#000000" font-family="sans-serif" font-size="13" lengthAdjust="spacing" textLength="453.5273" x="100" y="79.5669">Ids are assigned automaticaly via base constructor and static idcount</text><!--class LivingBeing--><g id="elem_LivingBeing"><rect codeLine="15" fill="#F1F1F1" height="113.1875" id="LivingBeing" rx="2.5" ry="2.5" style="stroke:#181818;stroke-width:0.5;" width="257.5469" x="394.5" y="213"/><ellipse cx="478.2778" cy="229" fill="#ADD1B2" rx="11" ry="11" style="stroke:#181818;stroke-width:1;"/><path d="M481.2466,234.6406 Q480.6685,234.9375 480.0278,235.0781 Q479.3872,235.2344 478.6841,235.2344 Q476.1841,235.2344 474.856,233.5938 Q473.5435,231.9375 473.5435,228.8125 Q473.5435,225.6875 474.856,224.0313 Q476.1841,222.375 478.6841,222.375 Q479.3872,222.375 480.0278,222.5313 Q480.6841,222.6875 481.2466,222.9844 L481.2466,225.7031 Q480.6216,225.125 480.0278,224.8594 Q479.4341,224.5781 478.8091,224.5781 Q477.4653,224.5781 476.7778,225.6563 Q476.0903,226.7188 476.0903,228.8125 Q476.0903,230.9063 476.7778,231.9844 Q477.4653,233.0469 478.8091,233.0469 Q479.4341,233.0469 480.0278,232.7813 Q480.6216,232.5 481.2466,231.9219 L481.2466,234.6406 Z " fill="#000000"/><text fill="#000000" font-family="sans-serif" font-size="14" lengthAdjust="spacing" textLength="81.4912" x="498.7778" y="233.8467">LivingBeing</text><line style="stroke:#181818;stroke-width:0.5;" x1="395.5" x2="651.0469" y1="245" y2="245"/><rect fill="transparent" height="6" style="stroke:#C82930;stroke-width:1;" width="6" x="402.5" y="255.6484"/><text fill="#000000" font-family="sans-serif" font-size="14" lengthAdjust="spacing" textLength="93.5088" x="414.5" y="261.9951">name : string</text><polygon fill="transparent" points="405.5,269.9453,409.5,273.9453,405.5,277.9453,401.5,273.9453" style="stroke:#B38D22;stroke-width:1;"/><text fill="#000000" font-family="sans-serif" font-size="14" lengthAdjust="spacing" textLength="85.0596" x="414.5" y="278.292">health : uint</text><polygon fill="transparent" points="405.5,286.2422,409.5,290.2422,405.5,294.2422,401.5,290.2422" style="stroke:#B38D22;stroke-width:1;"/><text fill="#000000" font-family="sans-serif" font-size="14" lengthAdjust="spacing" textLength="89.7695" x="414.5" y="294.5889">energy : uint</text><line style="stroke:#181818;stroke-width:0.5;" x1="395.5" x2="651.0469" y1="301.8906" y2="301.8906"/><polygon fill="#FFFF44" points="405.5,310.5391,409.5,314.5391,405.5,318.5391,401.5,314.5391" style="stroke:#B38D22;stroke-width:1;"/><text fill="#000000" font-family="sans-serif" font-size="14" lengthAdjust="spacing" textLength="231.5469" x="414.5" y="318.8857">LivingBeing(name, age, location)</text></g><path d="M6,229 L6,299.5313 A0,0 0 0 0 6,299.5313 L358.7095,299.5313 A0,0 0 0 0 358.7095,299.5313 L358.7095,268.2656 L398.5,314.0391 L358.7095,260.2656 L358.7095,239 L348.7095,229 L6,229 A0,0 0 0 0 6,229 " fill="#FEFFDD" style="stroke:#181818;stroke-width:0.5;"/><path d="M348.7095,229 L348.7095,239 L358.7095,239 L348.7095,229 " fill="#FEFFDD" style="stroke:#181818;stroke-width:0.5;"/><text fill="#000000" font-family="sans-serif" font-size="13" lengthAdjust="spacing" textLength="300.0918" x="12" y="246.0669">Constructor does not requier health or energy</text><text fill="#000000" font-family="sans-serif" font-size="13" lengthAdjust="spacing" textLength="284.8257" x="12" y="261.1997">because those variable will be set based on</text><text fill="#000000" font-family="sans-serif" font-size="13" lengthAdjust="spacing" textLength="331.7095" x="12" y="276.3325">derived class, for example Cat and Smurf will have</text><text fill="#000000" font-family="sans-serif" font-size="13" lengthAdjust="spacing" textLength="214.3477" x="12" y="291.4653">different base health and energy</text><!--class Smurf--><g id="elem_Smurf"><rect codeLine="30" fill="#F1F1F1" height="80.5938" id="Smurf" rx="2.5" ry="2.5" style="stroke:#181818;stroke-width:0.5;" width="251.5518" x="81.5" y="394"/><ellipse cx="181.9849" cy="410" fill="#ADD1B2" rx="11" ry="11" style="stroke:#181818;stroke-width:1;"/><path d="M184.9536,415.6406 Q184.3755,415.9375 183.7349,416.0781 Q183.0942,416.2344 182.3911,416.2344 Q179.8911,416.2344 178.563,414.5938 Q177.2505,412.9375 177.2505,409.8125 Q177.2505,406.6875 178.563,405.0313 Q179.8911,403.375 182.3911,403.375 Q183.0942,403.375 183.7349,403.5313 Q184.3911,403.6875 184.9536,403.9844 L184.9536,406.7031 Q184.3286,406.125 183.7349,405.8594 Q183.1411,405.5781 182.5161,405.5781 Q181.1724,405.5781 180.4849,406.6563 Q179.7974,407.7188 179.7974,409.8125 Q179.7974,411.9063 180.4849,412.9844 Q181.1724,414.0469 182.5161,414.0469 Q183.1411,414.0469 183.7349,413.7813 Q184.3286,413.5 184.9536,412.9219 L184.9536,415.6406 Z " fill="#000000"/><text fill="#000000" font-family="sans-serif" font-size="14" lengthAdjust="spacing" textLength="42.082" x="202.4849" y="414.8467">Smurf</text><line style="stroke:#181818;stroke-width:0.5;" x1="82.5" x2="332.0518" y1="426" y2="426"/><rect fill="transparent" height="6" style="stroke:#C82930;stroke-width:1;" width="6" x="89.5" y="436.6484"/><text fill="#000000" font-family="sans-serif" font-size="14" lengthAdjust="spacing" textLength="100.2354" x="101.5" y="442.9951">hatColor : uint</text><line style="stroke:#181818;stroke-width:0.5;" x1="82.5" x2="332.0518" y1="450.2969" y2="450.2969"/><ellipse cx="92.5" cy="463.9453" fill="#84BE84" rx="3" ry="3" style="stroke:#038048;stroke-width:1;"/><text fill="#000000" font-family="sans-serif" font-size="14" lengthAdjust="spacing" textLength="225.5518" x="101.5" y="467.292">Smurf(hatColor, name, location)</text></g><!--class Cat--><g id="elem_Cat"><rect codeLine="36" fill="#F1F1F1" height="96.8906" id="Cat" rx="2.5" ry="2.5" style="stroke:#181818;stroke-width:0.5;" width="309.6299" x="368.5" y="386"/><ellipse cx="507.1431" cy="402" fill="#ADD1B2" rx="11" ry="11" style="stroke:#181818;stroke-width:1;"/><path d="M510.1118,407.6406 Q509.5337,407.9375 508.8931,408.0781 Q508.2524,408.2344 507.5493,408.2344 Q505.0493,408.2344 503.7212,406.5938 Q502.4087,404.9375 502.4087,401.8125 Q502.4087,398.6875 503.7212,397.0313 Q505.0493,395.375 507.5493,395.375 Q508.2524,395.375 508.8931,395.5313 Q509.5493,395.6875 510.1118,395.9844 L510.1118,398.7031 Q509.4868,398.125 508.8931,397.8594 Q508.2993,397.5781 507.6743,397.5781 Q506.3306,397.5781 505.6431,398.6563 Q504.9556,399.7188 504.9556,401.8125 Q504.9556,403.9063 505.6431,404.9844 Q506.3306,406.0469 507.6743,406.0469 Q508.2993,406.0469 508.8931,405.7813 Q509.4868,405.5 510.1118,404.9219 L510.1118,407.6406 Z " fill="#000000"/><text fill="#000000" font-family="sans-serif" font-size="14" lengthAdjust="spacing" textLength="23.8438" x="527.6431" y="406.8467">Cat</text><line style="stroke:#181818;stroke-width:0.5;" x1="369.5" x2="677.1299" y1="418" y2="418"/><rect fill="transparent" height="6" style="stroke:#C82930;stroke-width:1;" width="6" x="376.5" y="428.6484"/><text fill="#000000" font-family="sans-serif" font-size="14" lengthAdjust="spacing" textLength="96.8516" x="388.5" y="434.9951">furColor : uint</text><rect fill="transparent" height="6" style="stroke:#C82930;stroke-width:1;" width="6" x="376.5" y="444.9453"/><text fill="#000000" font-family="sans-serif" font-size="14" lengthAdjust="spacing" textLength="124.6055" x="388.5" y="451.292">furPattern : string</text><line style="stroke:#181818;stroke-width:0.5;" x1="369.5" x2="677.1299" y1="458.5938" y2="458.5938"/><ellipse cx="379.5" cy="472.2422" fill="#84BE84" rx="3" ry="3" style="stroke:#038048;stroke-width:1;"/><text fill="#000000" font-family="sans-serif" font-size="14" lengthAdjust="spacing" textLength="283.6299" x="388.5" y="475.5889">Cat(furColor, furPattern, name, location)</text></g><!--class NonLivingBeing--><g id="elem_NonLivingBeing"><rect codeLine="43" fill="#F1F1F1" height="80.5938" id="NonLivingBeing" rx="2.5" ry="2.5" style="stroke:#181818;stroke-width:0.5;" width="269.209" x="742" y="229"/><ellipse cx="817.6533" cy="245" fill="#ADD1B2" rx="11" ry="11" style="stroke:#181818;stroke-width:1;"/><path d="M820.6221,250.6406 Q820.0439,250.9375 819.4033,251.0781 Q818.7627,251.2344 818.0596,251.2344 Q815.5596,251.2344 814.2314,249.5938 Q812.9189,247.9375 812.9189,244.8125 Q812.9189,241.6875 814.2314,240.0313 Q815.5596,238.375 818.0596,238.375 Q818.7627,238.375 819.4033,238.5313 Q820.0596,238.6875 820.6221,238.9844 L820.6221,241.7031 Q819.9971,241.125 819.4033,240.8594 Q818.8096,240.5781 818.1846,240.5781 Q816.8408,240.5781 816.1533,241.6563 Q815.4658,242.7188 815.4658,244.8125 Q815.4658,246.9063 816.1533,247.9844 Q816.8408,249.0469 818.1846,249.0469 Q818.8096,249.0469 819.4033,248.7813 Q819.9971,248.5 820.6221,247.9219 L820.6221,250.6406 Z " fill="#000000"/><text fill="#000000" font-family="sans-serif" font-size="14" lengthAdjust="spacing" textLength="109.4023" x="838.1533" y="249.8467">NonLivingBeing</text><line style="stroke:#181818;stroke-width:0.5;" x1="743" x2="1010.209" y1="261" y2="261"/><rect fill="transparent" height="6" style="stroke:#C82930;stroke-width:1;" width="6" x="750" y="271.6484"/><text fill="#000000" font-family="sans-serif" font-size="14" lengthAdjust="spacing" textLength="112.2393" x="762" y="277.9951">material : string</text><line style="stroke:#181818;stroke-width:0.5;" x1="743" x2="1010.209" y1="285.2969" y2="285.2969"/><polygon fill="#FFFF44" points="753,293.9453,757,297.9453,753,301.9453,749,297.9453" style="stroke:#B38D22;stroke-width:1;"/><text fill="#000000" font-family="sans-serif" font-size="14" lengthAdjust="spacing" textLength="243.209" x="762" y="302.292">NonLivingBeing(material, location)</text></g><!--class Building--><g id="elem_Building"><rect codeLine="49" fill="#F1F1F1" height="96.8906" id="Building" rx="2.5" ry="2.5" style="stroke:#181818;stroke-width:0.5;" width="325.0313" x="714" y="386"/><ellipse cx="843.8691" cy="402" fill="#ADD1B2" rx="11" ry="11" style="stroke:#181818;stroke-width:1;"/><path d="M846.8379,407.6406 Q846.2598,407.9375 845.6191,408.0781 Q844.9785,408.2344 844.2754,408.2344 Q841.7754,408.2344 840.4473,406.5938 Q839.1348,404.9375 839.1348,401.8125 Q839.1348,398.6875 840.4473,397.0313 Q841.7754,395.375 844.2754,395.375 Q844.9785,395.375 845.6191,395.5313 Q846.2754,395.6875 846.8379,395.9844 L846.8379,398.7031 Q846.2129,398.125 845.6191,397.8594 Q845.0254,397.5781 844.4004,397.5781 Q843.0566,397.5781 842.3691,398.6563 Q841.6816,399.7188 841.6816,401.8125 Q841.6816,403.9063 842.3691,404.9844 Q843.0566,406.0469 844.4004,406.0469 Q845.0254,406.0469 845.6191,405.7813 Q846.2129,405.5 846.8379,404.9219 L846.8379,407.6406 Z " fill="#000000"/><text fill="#000000" font-family="sans-serif" font-size="14" lengthAdjust="spacing" textLength="56.793" x="864.3691" y="406.8467">Building</text><line style="stroke:#181818;stroke-width:0.5;" x1="715" x2="1038.0313" y1="418" y2="418"/><rect fill="transparent" height="6" style="stroke:#C82930;stroke-width:1;" width="6" x="722" y="428.6484"/><text fill="#000000" font-family="sans-serif" font-size="14" lengthAdjust="spacing" textLength="76.5967" x="734" y="434.9951">area : float</text><rect fill="transparent" height="6" style="stroke:#C82930;stroke-width:1;" width="6" x="722" y="444.9453"/><text fill="#000000" font-family="sans-serif" font-size="14" lengthAdjust="spacing" textLength="99.8457" x="734" y="451.292">capacity : uint</text><line style="stroke:#181818;stroke-width:0.5;" x1="715" x2="1038.0313" y1="458.5938" y2="458.5938"/><ellipse cx="725" cy="472.2422" fill="#84BE84" rx="3" ry="3" style="stroke:#038048;stroke-width:1;"/><text fill="#000000" font-family="sans-serif" font-size="14" lengthAdjust="spacing" textLength="299.0313" x="734" y="475.5889">Building(area, capacity, material, location)</text></g><!--class NaturalStructure--><g id="elem_NaturalStructure"><rect codeLine="56" fill="#F1F1F1" height="80.5938" id="NaturalStructure" rx="2.5" ry="2.5" style="stroke:#181818;stroke-width:0.5;" width="368.6377" x="1074" y="394"/><ellipse cx="1195.5327" cy="410" fill="#ADD1B2" rx="11" ry="11" style="stroke:#181818;stroke-width:1;"/><path d="M1198.5015,415.6406 Q1197.9233,415.9375 1197.2827,416.0781 Q1196.6421,416.2344 1195.939,416.2344 Q1193.439,416.2344 1192.1108,414.5938 Q1190.7983,412.9375 1190.7983,409.8125 Q1190.7983,406.6875 1192.1108,405.0313 Q1193.439,403.375 1195.939,403.375 Q1196.6421,403.375 1197.2827,403.5313 Q1197.939,403.6875 1198.5015,403.9844 L1198.5015,406.7031 Q1197.8765,406.125 1197.2827,405.8594 Q1196.689,405.5781 1196.064,405.5781 Q1194.7202,405.5781 1194.0327,406.6563 Q1193.3452,407.7188 1193.3452,409.8125 Q1193.3452,411.9063 1194.0327,412.9844 Q1194.7202,414.0469 1196.064,414.0469 Q1196.689,414.0469 1197.2827,413.7813 Q1197.8765,413.5 1198.5015,412.9219 L1198.5015,415.6406 Z " fill="#000000"/><text fill="#000000" font-family="sans-serif" font-size="14" lengthAdjust="spacing" textLength="117.0723" x="1216.0327" y="414.8467">NaturalStructure</text><line style="stroke:#181818;stroke-width:0.5;" x1="1075" x2="1441.6377" y1="426" y2="426"/><rect fill="transparent" height="6" style="stroke:#C82930;stroke-width:1;" width="6" x="1082" y="436.6484"/><text fill="#000000" font-family="sans-serif" font-size="14" lengthAdjust="spacing" textLength="126.3828" x="1094" y="442.9951">harvestable : bool</text><line style="stroke:#181818;stroke-width:0.5;" x1="1075" x2="1441.6377" y1="450.2969" y2="450.2969"/><ellipse cx="1085" cy="463.9453" fill="#84BE84" rx="3" ry="3" style="stroke:#038048;stroke-width:1;"/><text fill="#000000" font-family="sans-serif" font-size="14" lengthAdjust="spacing" textLength="342.6377" x="1094" y="467.292">NaturalStructure(harvestable, material, location)</text></g><!--link Entity to LivingBeing--><g id="link_Entity_LivingBeing"><path codeLine="62" d="M631.71,153.22 C613.11,173.03 597.3561,189.8151 579.7861,208.5351 " fill="transparent" id="Entity-to-LivingBeing" style="stroke:#181818;stroke-width:1;"/><polygon fill="#181818" points="575.68,212.91,584.7558,209.0851,579.1018,209.2643,578.9226,203.6102,575.68,212.91" style="stroke:#181818;stroke-width:1;"/></g><!--link Entity to NonLivingBeing--><g id="link_Entity_NonLivingBeing"><path codeLine="63" d="M767.68,153.22 C791.93,178.91 814.2114,202.5169 834.9314,224.4669 " fill="transparent" id="Entity-to-NonLivingBeing" style="stroke:#181818;stroke-width:1;"/><polygon fill="#181818" points="839.05,228.83,835.7808,219.5396,835.6178,225.1941,829.9633,225.0311,839.05,228.83" style="stroke:#181818;stroke-width:1;"/></g><!--link LivingBeing to Smurf--><g id="link_LivingBeing_Smurf"><path codeLine="65" d="M415.63,326.14 C372.55,348.37 329.2426,370.7098 289.8226,391.0398 " fill="transparent" id="LivingBeing-to-Smurf" style="stroke:#181818;stroke-width:1;"/><polygon fill="#181818" points="284.49,393.79,294.3223,393.2198,288.9338,391.4982,290.6554,386.1097,284.49,393.79" style="stroke:#181818;stroke-width:1;"/></g><!--link LivingBeing to Cat--><g id="link_LivingBeing_Cat"><path codeLine="66" d="M523.5,326.14 C523.5,345.6 523.5,361.25 523.5,379.99 " fill="transparent" id="LivingBeing-to-Cat" style="stroke:#181818;stroke-width:1;"/><polygon fill="#181818" points="523.5,385.99,527.5,376.99,523.5,380.99,519.5,376.99,523.5,385.99" style="stroke:#181818;stroke-width:1;"/></g><!--link NonLivingBeing to Building--><g id="link_NonLivingBeing_Building"><path codeLine="68" d="M876.5,310.37 C876.5,333.18 876.5,355.94 876.5,379.92 " fill="transparent" id="NonLivingBeing-to-Building" style="stroke:#181818;stroke-width:1;"/><polygon fill="#181818" points="876.5,385.92,880.5,376.92,876.5,380.92,872.5,376.92,876.5,385.92" style="stroke:#181818;stroke-width:1;"/></g><!--link NonLivingBeing to NaturalStructure--><g id="link_NonLivingBeing_NaturalStructure"><path codeLine="69" d="M969.46,310.17 C1029.09,335.61 1100.6913,366.1654 1160.2713,391.5854 " fill="transparent" id="NonLivingBeing-to-NaturalStructure" style="stroke:#181818;stroke-width:1;"/><polygon fill="#181818" points="1165.79,393.94,1159.0817,386.729,1161.1911,391.9779,1155.9422,394.0873,1165.79,393.94" style="stroke:#181818;stroke-width:1;"/></g><!--SRC=[XLH1Rjmm3Bph5KHwSH7l1tpe8OiU2XH1WRo0Az6x0hHIAajk5qN_Nago7Db94nyCc9mPaYFAqk0qmLSRTBZ17m7y742heuism01JmA0bH6t3ckDmyurdQWEVm3Z976Spssjx5akY5EcOqA-WpzkSLZtiyd-5i2uG61e3k7513eDMcVfDJO2UWAVGPqiAC0PtJKsZkS6i4Kuu4KXdkPaeW_E0LjMvj99fK45MfI92o6p7Tprptm_4hsg9nIkzJ5IQlX2QSDbEJvRy-LPZIx3HwvBGXqCsX66u-uX-byiScn6LembO4JpzZ9fyRPLJfS7CE974oEQ4Y-FtZ5xZoH3yqiPm3YOAsJm5pcQy8gzd_imczJ0cjTzuVMRE4KFszUaQ_LWKBZXJeUbn94-sgDLM4dhfPUT-qQZ6Np0SdU5IhQNt1TJLP0_5busZHIrrLhN6w3TQQ_G7Xa1-lxBtYTnLKjy0twdtw6npNcjfNabs3yshMx75TnNtflP3r4Qrghpvo8gZSLYdaVYCCbtchL-LsYLAlw9wUBVW8uReqJpblOfypLvEnS_4boZjom0dvqmjjATq3VI_rPR_p-7mfLtzDhorIOZMuvJF-_0gokSdnEv4KhowyLPkFy0_]--></g></svg>